# xmcd CD database file
#
# Track frame offsets:
#	150
#	28180
#	58707
#	78017
#	108957
#	139070
#	170540
#	210877
#
# Disc length: 4440 seconds
#
# Revision: 2
# Processed by: cddbd v1.5.1PL2 Copyright (c) Steve Scherf et al.
# Submitted via: CDex 1.51
#
DISCID=5f115608
DTITLE=宮城道雄 - 響演「春の海」
DYEAR=2002
DGENRE=Instrumental
TTITLE0=春の海／宮城道雄、ルネ・シュメー
TTITLE1=春の海／宮城喜代子、青木鈴慕
TTITLE2=春の海／砂崎知子、ウニャ・ラモス
TTITLE3=春の海／宮城道雄、吉田雅夫
TTITLE4=春の海／砂崎知子、ビクターオーケストラ
TTITLE5=春の海／宮城数江、ガッゼローニ
TTITLE6=春の海／宮城道雄、吉田晴風
TTITLE7=春の海／CCCDを採用するビクターは死ね
EXTD=YEAR: 2002
EXTT0=
EXTT1=
EXTT2=
EXTT3=
EXTT4=
EXTT5=
EXTT6=
EXTT7=
PLAYORDER=
